<?xml version="1.0" standalone="no"?><!DOCTYPE svg PUBLIC "-//W3C//DTD SVG 1.1//EN" "http://www.w3.org/Graphics/SVG/1.1/DTD/svg11.dtd"><svg t="1539327671328" class="icon" style="" viewBox="0 0 1024 1024" version="1.1" xmlns="http://www.w3.org/2000/svg" p-id="1207" xmlns:xlink="http://www.w3.org/1999/xlink" width="128" height="128"><defs><style type="text/css"></style></defs><path d="M822.2 278.1c0-45-36.5-81.6-81.5-81.6H272.9c-44.9 0-81.5 36.6-81.5 81.6v490c0 45 36.5 81.5 81.5 81.5h467.9c44.9 0 81.5-36.7 81.5-81.7v-35.2c0-9-7.3-16.3-16.3-16.3s-16.3 7.3-16.3 16.3v35.2c0 27.1-21.9 49.1-48.8 49.1h-468c-26.9 0-48.8-21.9-48.8-48.9V278c0-27 21.9-48.9 48.8-48.9h467.9c26.9 0 48.8 22 48.8 49v35.6c0 9 7.3 16.3 16.3 16.3s16.3-7.3 16.3-16.3v-35.6z m0 0" p-id="1208" fill="#f5222d"></path><path d="M804.6 403.3H516.8c-65.4 0-118.5 53.2-118.5 118.5s53.2 118.5 118.5 118.5h287.8c9 0 16.3-7.3 16.3-16.3V419.7c0-9.1-7.3-16.4-16.3-16.4z m-16.4 204.4H516.8c-47.4 0-85.9-38.5-85.9-85.8s38.5-85.9 85.9-85.9h271.5v171.7z m0 0" p-id="1209" fill="#f5222d"></path><path d="M490.3 520.5c0 12.8 10.3 23.1 23.1 23.1s23.1-10.3 23.1-23.1-10.3-23.1-23.1-23.1c-12.7 0-23.1 10.3-23.1 23.1z m0 0" p-id="1210" fill="#f5222d"></path></svg>