<?xml version="1.0" standalone="no"?><!DOCTYPE svg PUBLIC "-//W3C//DTD SVG 1.1//EN" "http://www.w3.org/Graphics/SVG/1.1/DTD/svg11.dtd"><svg t="1539341753044" class="icon" style="" viewBox="0 0 1024 1024" version="1.1" xmlns="http://www.w3.org/2000/svg" p-id="4558" xmlns:xlink="http://www.w3.org/1999/xlink" width="128" height="128"><defs><style type="text/css"></style></defs><path d="M511.25434595 65.7260544c-207.5403757 0-375.8096384 168.2692627-375.8096384 375.8096384 0 205.42768925 164.78954382 372.32991952 369.34730335 375.68536272l2.48551348 141.9228198s151.11921968-84.01035568 291.67500705-275.89199644c0 0 0-0.12427568 0.12427568-0.12427568 54.92984795-65.36900457 87.98717725-149.62791158 87.98717724-241.5919104 0-207.5403757-168.2692627-375.8096384-375.8096384-375.8096384z m-0.12427567 652.19873755c-28.45912937 0-51.57440475-23.4881024-51.57440473-52.56861014 0-28.95623205 23.11527538-52.44433445 51.57440473-52.44433446s51.57440475 23.4881024 51.57440474 52.44433446c0 29.08050773-23.11527538 52.56861013-51.57440474 52.56861014z m143.91123057-329.95191467c-7.08371342 13.54604848-15.53445925 25.22796183-25.3522375 35.04574009-9.81777825 9.81777825-27.3406483 26.3464429-52.6928858 49.71026962-6.95943775 6.58661072-12.67611875 12.30329173-16.777216 17.2743187-4.22537292 4.97102697-7.33226477 9.5692269-9.44495124 13.67032414-2.11268645 4.10109725-3.72827022 8.20219449-4.84675129 12.42756742-1.11848107 4.10109725-2.8583405 11.43336202-5.09530264 21.74824296-3.97682157 21.99679431-16.15583763 33.0573293-36.78559953 33.0573293-10.68770797 0-19.75983218-3.60399455-26.96782127-10.81198364-7.33226477-7.2079891-10.93625932-17.89569707-10.93625931-32.06312392 0-17.77142139 2.60978915-33.18160498 8.07791881-46.23055075 5.34385398-13.04894578 12.42756741-24.48230779 21.37541594-34.30008605 8.82357285-9.81777825 20.75403757-21.49969162 35.79139413-35.04574008 13.17322145-11.80618903 22.74244835-20.75403757 28.58340504-26.8435456 5.84095668-6.08950803 10.81198365-12.80039443 14.78880522-20.1326592 3.97682157-7.45654045 6.08950803-15.41018358 6.08950802-24.10948077 0-16.90149168-6.08950803-31.19319419-18.39279975-42.87510755-12.30329173-11.68191337-28.08630235-17.52287005-47.4733075-17.52287005-22.61817268 0-39.39538868 5.84095668-50.08309666 17.64714572-10.68770797 11.80618903-19.75983218 29.08050773-27.21637262 51.94723176-6.95943775 23.9852051-20.25693488 35.91566981-39.89249138 35.9156698-11.55763769 0-21.25114027-4.22537292-29.2047834-12.55184308-7.95364315-8.32647017-11.93046471-17.39859437-11.93046471-27.09209695 0-20.1326592 6.2137837-40.51386975 18.88990246-61.14363164 12.55184308-20.6297619 30.94464285-37.77980492 55.05412361-51.32585339 24.10948077-13.54604848 52.19578311-20.38121055 84.3831827-20.38121055 29.82616178 0 56.17260468 5.71668101 79.03932871 17.02576735s40.51386975 26.71926992 52.94143716 46.23055076c12.42756741 19.51128083 18.64135111 40.63814542 18.6413511 63.50486944 0.12427568 17.89569707-3.47971888 33.67870768-10.5634323 47.22475616z" p-id="4559" fill="#f5222d"></path></svg>