<?xml version="1.0" standalone="no"?><!DOCTYPE svg PUBLIC "-//W3C//DTD SVG 1.1//EN" "http://www.w3.org/Graphics/SVG/1.1/DTD/svg11.dtd"><svg t="1539332562455" class="icon" style="" viewBox="0 0 1024 1024" version="1.1" xmlns="http://www.w3.org/2000/svg" p-id="2119" xmlns:xlink="http://www.w3.org/1999/xlink" width="128" height="128"><defs><style type="text/css"></style></defs><path d="M441.5 463.8l2.4-10.2 12.8-50-154 87.5 156.7 78.2-19.2-61.8h134.5c24.3 3 69.4 20.7 69.4 66.4 0 39.5-35.8 66.3-69.3 66.6H397.7c-0.1 8.1-0.1 22.9 0 43.7h177.7c5.4 0 54.3-0.9 86.5-32.3 19.4-18.7 28.9-45 28.4-78.4 0.7-12.4-3.6-53.2-31.2-80.5-19.8-19.4-48.2-29.3-84.2-29.3H441.5z" p-id="2120" fill="#f5222d"></path><path d="M755.9 210H652.3v-54.3c0-25.3-21.8-41-42-41H416.2c-20.2 0-41.9 12.8-41.9 41V210H270.5c-23.1 0-41.9 18.4-41.9 41v571.3c0 22.6 18.8 41 41.9 41h485.4c23 0 41.8-18.4 41.8-41V251c0.1-22.6-18.7-41-41.8-41z m-346.3-60.9H617v119.3H409.6V149.1z m352.9 679.8H263.9V244.4h110.4V264c0 19.7 13.1 41 41.9 41h194.1c27.5 0 42-20.6 42-41v-19.6h110.3v584.5z" p-id="2121" fill="#f5222d"></path></svg>