<?xml version="1.0" standalone="no"?><!DOCTYPE svg PUBLIC "-//W3C//DTD SVG 1.1//EN" "http://www.w3.org/Graphics/SVG/1.1/DTD/svg11.dtd"><svg t="1539341700358" class="icon" style="" viewBox="0 0 1156 1024" version="1.1" xmlns="http://www.w3.org/2000/svg" p-id="3802" xmlns:xlink="http://www.w3.org/1999/xlink" width="144.5" height="128"><defs><style type="text/css"></style></defs><path d="M 1116.96 368.407 a 76.594 76.594 0 0 0 -78.2202 2.81875 l -392.294 252.422 a 126.247 126.247 0 0 1 -136.348 0 L 117.809 371.225 a 76.6121 76.6121 0 0 0 -78.2383 -2.81875 A 75.7448 75.7448 0 0 0 0 434.882 v 473.586 c 0 63.6386 52.2733 115.532 116.508 115.532 H 1040.05 c 64.2349 0 116.508 -51.8216 116.508 -115.532 v -473.586 a 75.7628 75.7628 0 0 0 -39.5889 -66.4754 Z" fill="#f5222d" p-id="3803"></path><path d="M 211.496 379.935 L 509.543 570.489 a 128.036 128.036 0 0 0 137.432 0 L 945.003 379.935 a 98.9452 98.9452 0 0 0 45.8588 -83.7312 v -189.723 C 990.916 47.7741 942.69 0 883.424 0 H 273.111 c -59.2479 0 -107.474 47.7741 -107.474 106.498 v 189.723 a 98.9452 98.9452 0 0 0 45.8588 83.7132 Z m 271.666 -73.2513 H 551.101 v -66.8549 a 27.1033 27.1033 0 0 1 54.2067 0 v 66.8549 h 67.9932 a 27.1033 27.1033 0 0 1 0 54.2067 H 605.308 v 66.8549 a 27.1033 27.1033 0 0 1 -54.2067 0 v -66.8549 h -67.939 a 27.1033 27.1033 0 1 1 0 -54.2067 Z" fill="#f5222d" p-id="3804"></path></svg>